<svg width="32" height="64" viewBox="0 0 32 64" fill="none" xmlns="http://www.w3.org/2000/svg">
<path d="M16 17C9.91 26 6 31.62 6 37.09C6 39.7422 7.05357 42.2857 8.92893 44.1611C10.8043 46.0364 13.3478 47.09 16 47.09C18.6522 47.09 21.1957 46.0364 23.0711 44.1611C24.9464 42.2857 26 39.7422 26 37.09C26 31.62 22.09 26 16 17Z" fill="url(#paint0_linear)" stroke="#2885C7" stroke-width="0.5" stroke-miterlimit="10"/>
<path d="M10.24 30.19C10.8318 29.6962 11.5909 29.4491 12.36 29.5C13.1291 29.4491 13.8882 29.6962 14.48 30.19C14.732 30.4396 14.9282 30.7397 15.0558 31.0707C15.1833 31.4016 15.2393 31.7559 15.22 32.11V33.35C15.2384 33.7011 15.1819 34.052 15.0543 34.3796C14.9267 34.7071 14.731 35.0038 14.48 35.25C13.8843 35.7357 13.1271 35.9786 12.36 35.93C11.5923 35.9837 10.8333 35.7402 10.24 35.25C9.98904 35.0038 9.79328 34.7071 9.6657 34.3796C9.53812 34.052 9.48164 33.7011 9.5 33.35V32.11C9.48069 31.7559 9.53666 31.4016 9.66421 31.0707C9.79176 30.7397 9.988 30.4396 10.24 30.19ZM21.24 29.96C21.2618 30.028 21.2658 30.1004 21.2518 30.1704C21.2378 30.2404 21.2062 30.3056 21.16 30.36L13 41.69C12.889 41.8685 12.7385 42.019 12.56 42.13C12.3282 42.2067 12.0836 42.2373 11.84 42.22H11.17C10.97 42.22 10.84 42.16 10.79 42.04C10.74 41.92 10.79 41.79 10.88 41.62L19.08 30.27C19.1732 30.0958 19.3158 29.9532 19.49 29.86C19.7072 29.7956 19.9337 29.7685 20.16 29.78H20.92C21.1 29.78 21.2133 29.8533 21.26 30L21.24 29.96ZM12.34 31.13C11.55 31.13 11.15 31.49 11.15 32.2V33.2C11.15 33.91 11.55 34.27 12.34 34.27C13.13 34.27 13.53 33.91 13.53 33.2V32.2C13.55 31.49 13.15 31.13 12.36 31.13H12.34ZM17.5 36.76C18.0918 36.2662 18.8509 36.0191 19.62 36.07C20.3891 36.0191 21.1482 36.2662 21.74 36.76C21.992 37.0096 22.1882 37.3097 22.3158 37.6407C22.4433 37.9716 22.4993 38.3259 22.48 38.68V39.92C22.4984 40.2711 22.4419 40.622 22.3143 40.9496C22.1867 41.2771 21.991 41.5738 21.74 41.82C21.1467 42.3102 20.3877 42.5536 19.62 42.5C18.8529 42.5486 18.0957 42.3057 17.5 41.82C17.249 41.5738 17.0533 41.2771 16.9257 40.9496C16.7981 40.622 16.7416 40.2711 16.76 39.92V38.68C16.7433 38.3244 16.8024 37.9693 16.9334 37.6382C17.0644 37.3072 17.2644 37.0078 17.52 36.76H17.5ZM19.62 37.7C18.83 37.7 18.43 38.05 18.43 38.77V39.77C18.43 40.5 18.83 40.86 19.62 40.86C20.41 40.86 20.81 40.5 20.81 39.77V38.77C20.83 38.05 20.43 37.7 19.64 37.7H19.62Z" fill="white"/>
<defs>
<linearGradient id="paint0_linear" x1="7.61" y1="21.85" x2="21.27" y2="45.52" gradientUnits="userSpaceOnUse">
<stop stop-color="#3392D6"/>
<stop offset="0.45" stop-color="#3392D6"/>
<stop offset="1" stop-color="#2477B2"/>
</linearGradient>
</defs>
</svg>
