<svg xmlns="http://www.w3.org/2000/svg" viewBox="0 0 64 64"><defs><linearGradient id="a" x1="26.75" x2="37.25" y1="22.91" y2="41.09" gradientUnits="userSpaceOnUse"><stop offset="0" stop-color="#fbbf24"/><stop offset=".45" stop-color="#fbbf24"/><stop offset="1" stop-color="#f59e0b"/></linearGradient></defs><circle cx="32" cy="32" r="10.5" fill="url(#a)" stroke="#f8af18" stroke-miterlimit="10" stroke-width=".5"/><path fill="none" stroke="#fbbf24" stroke-linecap="round" stroke-miterlimit="10" stroke-width="3" d="M32 15.71V9.5m0 45v-6.21m11.52-27.81l4.39-4.39M16.09 47.91l4.39-4.39m0-23l-4.39-4.39m31.82 31.78l-4.39-4.39M15.71 32H9.5m45 0h-6.21"><animateTransform attributeName="transform" dur="45s" repeatCount="indefinite" type="rotate" values="0 32 32; 360 32 32"/></path><rect width="21" height="21" x="33.5" y="33.5" fill="#91c700" stroke="#fff" stroke-miterlimit="10" stroke-width="2" rx="6"/><path fill="#fff" d="M41.8144 40.7191C42.4547 40.2518 43.2268 40 44.0194 40C44.8121 40 45.5842 40.2518 46.2244 40.7191C46.4944 40.9744 46.705 41.2859 46.8415 41.6314C46.978 41.977 47.0371 42.3483 47.0144 42.7191V45.3191C47.0377 45.6901 46.979 46.0616 46.8425 46.4072C46.706 46.7529 46.4949 47.0643 46.2244 47.3191C45.6035 47.8233 44.8113 48.067 44.0144 47.9991C43.2115 48.0479 42.4204 47.7866 41.8044 47.2691C41.5321 47.0152 41.3192 46.7043 41.181 46.3585C41.0427 46.0128 40.9824 45.6408 41.0044 45.2691V42.6691C40.9897 42.3048 41.0545 41.9416 41.1944 41.6048C41.3343 41.2681 41.5459 40.9658 41.8144 40.7191ZM44.9144 41.8791C44.6599 41.685 44.3439 41.5891 44.0244 41.6091C43.6984 41.586 43.3751 41.682 43.1144 41.8791C43.0062 41.9791 42.9214 42.1018 42.8661 42.2383C42.8107 42.3749 42.7863 42.522 42.7944 42.6691V45.3191C42.7863 45.4663 42.8107 45.6134 42.8661 45.7499C42.9214 45.8865 43.0062 46.0092 43.1144 46.1091C43.3719 46.3133 43.6967 46.4132 44.0244 46.3891C44.3458 46.4111 44.6636 46.3111 44.9144 46.1091C45.0227 46.0092 45.1075 45.8865 45.1628 45.7499C45.2181 45.6134 45.2426 45.4663 45.2344 45.3191V42.6691C45.2426 42.522 45.2181 42.3749 45.1628 42.2383C45.1075 42.1018 45.0227 41.9791 44.9144 41.8791Z"/></svg>